<svg xmlns="http://www.w3.org/2000/svg" viewBox="0 0 256 256" role="img" aria-label="Asteria icon">
  <defs>
    <linearGradient id="bg" x1="0" x2="1" y1="0" y2="1">
      <stop offset="0%" stop-color="#f8ffff"/>
      <stop offset="100%" stop-color="#dff8f3"/>
    </linearGradient>
    <linearGradient id="teal" x1="0" x2="1">
      <stop offset="0%" stop-color="#1aa39a"/>
      <stop offset="100%" stop-color="#0f827a"/>
    </linearGradient>
    <linearGradient id="mint" x1="0" x2="1">
      <stop offset="0%" stop-color="#d9f4e4"/>
      <stop offset="100%" stop-color="#d7f6f2"/>
    </linearGradient>
  </defs>
  <rect width="256" height="256" rx="56" fill="url(#bg)" />
  <circle cx="128" cy="128" r="94" fill="white" stroke="#c8ebe7" stroke-width="8"/>
  <circle cx="128" cy="128" r="68" fill="url(#mint)" stroke="#bce6df" stroke-width="4"/>
  <path d="M128 36 L146 92 L220 128 L146 164 L128 220 L110 164 L36 128 L110 92 Z"
        fill="url(#teal)" opacity="0.92"/>
  <path d="M128 62 L138 103 L194 128 L138 153 L128 194 L118 153 L62 128 L118 103 Z"
        fill="#f7fffe" opacity="0.95"/>
  <path d="M128 84 L140 116 L174 128 L140 140 L128 172 L116 140 L82 128 L116 116 Z"
        fill="url(#teal)"/>
  <path d="M128 92 L157 168 H141 L134 150 H122 L115 168 H99 Z M128 121 L127 121 L121 137 H135 Z"
        fill="#ffffff"/>
</svg>
