<?xml version="1.0" encoding="UTF-8" standalone="no"?>
<!DOCTYPE svg PUBLIC "-//W3C//DTD SVG 1.1//EN"
 "http://www.w3.org/Graphics/SVG/1.1/DTD/svg11.dtd">
<!-- Generated by graphviz version 10.0.1 (20240210.2158)
 -->
<!-- Title: SoccerBowlingRound Pages: 1 -->
<svg width="1423pt" height="1092pt"
 viewBox="0.00 0.00 1423.00 1091.73" xmlns="http://www.w3.org/2000/svg" xmlns:xlink="http://www.w3.org/1999/xlink">
<g id="graph0" class="graph" transform="scale(1 1) rotate(0) translate(18 1073.73)">
<title>SoccerBowlingRound</title>
<polygon fill="white" stroke="none" points="-18,18 -18,-1073.73 1405,-1073.73 1405,18 -18,18"/>
<text text-anchor="start" x="443" y="-1033.73" font-family="Segoe UI" font-size="20.00"> &#160;&#160;&#160;&#160;&#160;</text>
<text text-anchor="start" x="474.5" y="-1033.73" font-family="Segoe UI" font-weight="bold" font-size="20.00">SoccerBowlingRound &#45; Complete Node Structure</text>
<text text-anchor="start" x="508.25" y="-1013.73" font-family="Segoe UI" font-size="20.00"> &#160;&#160;&#160;&#160;&#160;</text>
<text text-anchor="start" x="539.75" y="-1013.73" font-family="Segoe UI" font-size="12.00">C = Completion, S = Success, F = Failure, T = Timer transition</text>
<text text-anchor="start" x="857.75" y="-1013.73" font-family="Segoe UI" font-size="20.00"> &#160;&#160;&#160;</text>
<g id="clust1" class="cluster">
<title>cluster_main</title>
<path fill="#f8fafc" stroke="#cbd5e1" d="M234,-818.63C234,-818.63 1367,-818.63 1367,-818.63 1373,-818.63 1379,-824.63 1379,-830.63 1379,-830.63 1379,-917.03 1379,-917.03 1379,-923.03 1373,-929.03 1367,-929.03 1367,-929.03 234,-929.03 234,-929.03 228,-929.03 222,-923.03 222,-917.03 222,-917.03 222,-830.63 222,-830.63 222,-824.63 228,-818.63 234,-818.63"/>
<text text-anchor="middle" x="800.5" y="-910.78" font-family="Segoe UI Semibold" font-size="15.00">Top&#45;Level Program</text>
</g>
<g id="clust3" class="cluster">
<title>cluster_acquire</title>
<path fill="#f5f3ff" stroke="#c4b5fd" d="M20,-114.48C20,-114.48 606,-114.48 606,-114.48 612,-114.48 618,-120.48 618,-126.48 618,-126.48 618,-785.63 618,-785.63 618,-791.63 612,-797.63 606,-797.63 606,-797.63 20,-797.63 20,-797.63 14,-797.63 8,-791.63 8,-785.63 8,-785.63 8,-126.48 8,-126.48 8,-120.48 14,-114.48 20,-114.48"/>
<text text-anchor="middle" x="313" y="-779.38" font-family="Segoe UI Semibold" font-size="15.00">AcquireSoccerBall() Expansion</text>
</g>
<g id="clust4" class="cluster">
<title>cluster_shoot</title>
<path fill="#eff6ff" stroke="#93c5fd" d="M639,-8C639,-8 1153,-8 1153,-8 1159,-8 1165,-14 1165,-20 1165,-20 1165,-785.63 1165,-785.63 1165,-791.63 1159,-797.63 1153,-797.63 1153,-797.63 639,-797.63 639,-797.63 633,-797.63 627,-791.63 627,-785.63 627,-785.63 627,-20 627,-20 627,-14 633,-8 639,-8"/>
<text text-anchor="middle" x="896" y="-779.38" font-family="Segoe UI Semibold" font-size="15.00">ShootHeldBallAtTag0() Expansion</text>
</g>
<!-- main_start -->
<g id="node1" class="node">
<title>main_start</title>
<path fill="#dbeafe" stroke="#475569" d="M368.3,-863.03C368.3,-863.03 241.7,-863.03 241.7,-863.03 235.7,-863.03 229.7,-857.03 229.7,-851.03 229.7,-851.03 229.7,-838.63 229.7,-838.63 229.7,-832.63 235.7,-826.63 241.7,-826.63 241.7,-826.63 368.3,-826.63 368.3,-826.63 374.3,-826.63 380.3,-832.63 380.3,-838.63 380.3,-838.63 380.3,-851.03 380.3,-851.03 380.3,-857.03 374.3,-863.03 368.3,-863.03"/>
<text text-anchor="start" x="292.25" y="-845.43" font-family="Segoe UI" font-weight="bold" font-size="12.00">start</text>
<text text-anchor="start" x="240.5" y="-835.33" font-family="Segoe UI" font-size="10.00">Say(&quot;Starting bowling round&quot;)</text>
</g>
<!-- main_acquire_ball -->
<g id="node2" class="node">
<title>main_acquire_ball</title>
<path fill="#ede9fe" stroke="#475569" d="M522.42,-863.03C522.42,-863.03 441.57,-863.03 441.57,-863.03 435.57,-863.03 429.57,-857.03 429.57,-851.03 429.57,-851.03 429.57,-838.63 429.57,-838.63 429.57,-832.63 435.57,-826.63 441.57,-826.63 441.57,-826.63 522.42,-826.63 522.42,-826.63 528.42,-826.63 534.42,-832.63 534.42,-838.63 534.42,-838.63 534.42,-851.03 534.42,-851.03 534.42,-857.03 528.42,-863.03 522.42,-863.03"/>
<text text-anchor="start" x="447.12" y="-845.43" font-family="Segoe UI" font-weight="bold" font-size="12.00">acquire_ball</text>
<text text-anchor="start" x="440.38" y="-835.33" font-family="Segoe UI" font-size="10.00">AcquireSoccerBall()</text>
</g>
<!-- main_start&#45;&gt;main_acquire_ball -->
<g id="edge1" class="edge">
<title>main_start&#45;&gt;main_acquire_ball</title>
<path fill="none" stroke="#059669" stroke-width="1.8" d="M380.58,-844.83C393.22,-844.83 406.23,-844.83 418.53,-844.83"/>
<polygon fill="#059669" stroke="#059669" stroke-width="1.8" points="418.41,-847.63 426.41,-844.83 418.41,-842.03 418.41,-847.63"/>
<text text-anchor="middle" x="404.94" y="-852.38" font-family="Segoe UI" font-size="11.00" fill="#059669">C</text>
</g>
<!-- main_announce_shot -->
<g id="node3" class="node">
<title>main_announce_shot</title>
<path fill="#dbeafe" stroke="#475569" d="M781.92,-863.03C781.92,-863.03 596.08,-863.03 596.08,-863.03 590.08,-863.03 584.08,-857.03 584.08,-851.03 584.08,-851.03 584.08,-838.63 584.08,-838.63 584.08,-832.63 590.08,-826.63 596.08,-826.63 596.08,-826.63 781.92,-826.63 781.92,-826.63 787.92,-826.63 793.92,-832.63 793.92,-838.63 793.92,-838.63 793.92,-851.03 793.92,-851.03 793.92,-857.03 787.92,-863.03 781.92,-863.03"/>
<text text-anchor="start" x="645.5" y="-845.43" font-family="Segoe UI" font-weight="bold" font-size="12.00">announce_shot</text>
<text text-anchor="start" x="594.88" y="-835.33" font-family="Segoe UI" font-size="10.00">Say(&quot;Ball acquired. Looking for AprilTag 0&quot;)</text>
</g>
<!-- main_acquire_ball&#45;&gt;main_announce_shot -->
<g id="edge2" class="edge">
<title>main_acquire_ball&#45;&gt;main_announce_shot</title>
<path fill="none" stroke="#059669" stroke-width="1.8" d="M534.77,-844.83C546.8,-844.83 560.04,-844.83 573.56,-844.83"/>
<polygon fill="#059669" stroke="#059669" stroke-width="1.8" points="573.21,-847.63 581.21,-844.83 573.21,-842.03 573.21,-847.63"/>
<text text-anchor="middle" x="559.25" y="-852.38" font-family="Segoe UI" font-size="11.00" fill="#059669">C</text>
</g>
<!-- main_failed -->
<g id="node6" class="node">
<title>main_failed</title>
<path fill="#fee2e2" stroke="#475569" d="M1178.17,-863.03C1178.17,-863.03 1023.83,-863.03 1023.83,-863.03 1017.83,-863.03 1011.83,-857.03 1011.83,-851.03 1011.83,-851.03 1011.83,-838.63 1011.83,-838.63 1011.83,-832.63 1017.83,-826.63 1023.83,-826.63 1023.83,-826.63 1178.17,-826.63 1178.17,-826.63 1184.17,-826.63 1190.17,-832.63 1190.17,-838.63 1190.17,-838.63 1190.17,-851.03 1190.17,-851.03 1190.17,-857.03 1184.17,-863.03 1178.17,-863.03"/>
<text text-anchor="start" x="1084.5" y="-845.43" font-family="Segoe UI" font-weight="bold" font-size="12.00">failed</text>
<text text-anchor="start" x="1022.62" y="-835.33" font-family="Segoe UI" font-size="10.00">Print(&quot;soccer_bowling_round failed&quot;)</text>
</g>
<!-- main_acquire_ball&#45;&gt;main_failed -->
<g id="edge3" class="edge">
<title>main_acquire_ball&#45;&gt;main_failed</title>
<path fill="none" stroke="#dc2626" stroke-width="1.8" d="M495.76,-863.53C511.6,-883.31 539.63,-913.34 572,-925.75 655.62,-957.81 889.07,-950.97 975,-925.75 1012.04,-914.88 1048.51,-889.39 1072.6,-869.91"/>
<polygon fill="#dc2626" stroke="#dc2626" stroke-width="1.8" points="1074.11,-872.29 1078.49,-865.03 1070.54,-867.98 1074.11,-872.29"/>
<text text-anchor="middle" x="770" y="-941.58" font-family="Segoe UI" font-size="11.00" fill="#dc2626">F</text>
</g>
<!-- ab_search_ball -->
<g id="node7" class="node">
<title>ab_search_ball</title>
<path fill="#eef2ff" stroke="#475569" d="M586.92,-731.63C586.92,-731.63 377.07,-731.63 377.07,-731.63 371.07,-731.63 365.07,-725.63 365.07,-719.63 365.07,-719.63 365.07,-707.23 365.07,-707.23 365.07,-701.23 371.07,-695.23 377.07,-695.23 377.07,-695.23 586.92,-695.23 586.92,-695.23 592.92,-695.23 598.92,-701.23 598.92,-707.23 598.92,-707.23 598.92,-719.63 598.92,-719.63 598.92,-725.63 592.92,-731.63 586.92,-731.63"/>
<text text-anchor="start" x="450.12" y="-714.03" font-family="Segoe UI" font-weight="bold" font-size="12.00">search_ball</text>
<text text-anchor="start" x="375.88" y="-703.93" font-family="Segoe UI" font-size="10.00">SearchForVisibleObject(BALL_SPEC, &quot;soccer ball&quot;)</text>
</g>
<!-- main_acquire_ball&#45;&gt;ab_search_ball -->
<!-- main_take_shot -->
<g id="node4" class="node">
<title>main_take_shot</title>
<path fill="#ede9fe" stroke="#475569" d="M950.55,-863.03C950.55,-863.03 855.45,-863.03 855.45,-863.03 849.45,-863.03 843.45,-857.03 843.45,-851.03 843.45,-851.03 843.45,-838.63 843.45,-838.63 843.45,-832.63 849.45,-826.63 855.45,-826.63 855.45,-826.63 950.55,-826.63 950.55,-826.63 956.55,-826.63 962.55,-832.63 962.55,-838.63 962.55,-838.63 962.55,-851.03 962.55,-851.03 962.55,-857.03 956.55,-863.03 950.55,-863.03"/>
<text text-anchor="start" x="875.62" y="-845.43" font-family="Segoe UI" font-weight="bold" font-size="12.00">take_shot</text>
<text text-anchor="start" x="854.25" y="-835.33" font-family="Segoe UI" font-size="10.00">ShootHeldBallAtTag0()</text>
</g>
<!-- main_announce_shot&#45;&gt;main_take_shot -->
<g id="edge4" class="edge">
<title>main_announce_shot&#45;&gt;main_take_shot</title>
<path fill="none" stroke="#059669" stroke-width="1.8" d="M794.12,-844.83C807.12,-844.83 820.15,-844.83 832.46,-844.83"/>
<polygon fill="#059669" stroke="#059669" stroke-width="1.8" points="832.34,-847.63 840.34,-844.83 832.34,-842.03 832.34,-847.63"/>
<text text-anchor="middle" x="818.69" y="-852.38" font-family="Segoe UI" font-size="11.00" fill="#059669">C</text>
</g>
<!-- main_done -->
<g id="node5" class="node">
<title>main_done</title>
<path fill="#dcfce7" stroke="#475569" d="M1359.3,-863.03C1359.3,-863.03 1226.7,-863.03 1226.7,-863.03 1220.7,-863.03 1214.7,-857.03 1214.7,-851.03 1214.7,-851.03 1214.7,-838.63 1214.7,-838.63 1214.7,-832.63 1220.7,-826.63 1226.7,-826.63 1226.7,-826.63 1359.3,-826.63 1359.3,-826.63 1365.3,-826.63 1371.3,-832.63 1371.3,-838.63 1371.3,-838.63 1371.3,-851.03 1371.3,-851.03 1371.3,-857.03 1365.3,-863.03 1359.3,-863.03"/>
<text text-anchor="start" x="1278.38" y="-845.43" font-family="Segoe UI" font-weight="bold" font-size="12.00">done</text>
<text text-anchor="start" x="1225.5" y="-835.33" font-family="Segoe UI" font-size="10.00">Say(&quot;Bowling round complete&quot;)</text>
</g>
<!-- main_take_shot&#45;&gt;main_done -->
<g id="edge5" class="edge">
<title>main_take_shot&#45;&gt;main_done</title>
<path fill="none" stroke="#059669" stroke-width="1.8" d="M917.65,-863.2C934.74,-883 965.01,-913.34 999,-925.75 1084.16,-956.85 1118.34,-958.21 1203,-925.75 1231.2,-914.94 1256.1,-890.76 1272.52,-871.63"/>
<polygon fill="#059669" stroke="#059669" stroke-width="1.8" points="1274.55,-873.57 1277.5,-865.63 1270.24,-870 1274.55,-873.57"/>
<text text-anchor="middle" x="1088" y="-941.58" font-family="Segoe UI" font-size="11.00" fill="#059669">C</text>
</g>
<!-- main_take_shot&#45;&gt;main_failed -->
<g id="edge6" class="edge">
<title>main_take_shot&#45;&gt;main_failed</title>
<path fill="none" stroke="#dc2626" stroke-width="1.8" d="M962.94,-844.83C975.07,-844.83 988.12,-844.83 1001.2,-844.83"/>
<polygon fill="#dc2626" stroke="#dc2626" stroke-width="1.8" points="1000.95,-847.63 1008.95,-844.83 1000.95,-842.03 1000.95,-847.63"/>
<text text-anchor="middle" x="987.19" y="-852.38" font-family="Segoe UI" font-size="11.00" fill="#dc2626">F</text>
</g>
<!-- sh_check_ball -->
<g id="node16" class="node">
<title>sh_check_ball</title>
<path fill="#eef2ff" stroke="#475569" d="M939.3,-731.63C939.3,-731.63 866.7,-731.63 866.7,-731.63 860.7,-731.63 854.7,-725.63 854.7,-719.63 854.7,-719.63 854.7,-707.23 854.7,-707.23 854.7,-701.23 860.7,-695.23 866.7,-695.23 866.7,-695.23 939.3,-695.23 939.3,-695.23 945.3,-695.23 951.3,-701.23 951.3,-707.23 951.3,-707.23 951.3,-719.63 951.3,-719.63 951.3,-725.63 945.3,-731.63 939.3,-731.63"/>
<text text-anchor="start" x="873" y="-714.03" font-family="Segoe UI" font-weight="bold" font-size="12.00">check_ball</text>
<text text-anchor="start" x="865.5" y="-703.93" font-family="Segoe UI" font-size="10.00">RequireHeldBall()</text>
</g>
<!-- main_take_shot&#45;&gt;sh_check_ball -->
<!-- ab_pickup_ball -->
<g id="node8" class="node">
<title>ab_pickup_ball</title>
<path fill="#eef2ff" stroke="#475569" d="M387.3,-640.23C387.3,-640.23 308.7,-640.23 308.7,-640.23 302.7,-640.23 296.7,-634.23 296.7,-628.23 296.7,-628.23 296.7,-615.83 296.7,-615.83 296.7,-609.83 302.7,-603.83 308.7,-603.83 308.7,-603.83 387.3,-603.83 387.3,-603.83 393.3,-603.83 399.3,-609.83 399.3,-615.83 399.3,-615.83 399.3,-628.23 399.3,-628.23 399.3,-634.23 393.3,-640.23 387.3,-640.23"/>
<text text-anchor="start" x="315" y="-622.63" font-family="Segoe UI" font-weight="bold" font-size="12.00">pickup_ball</text>
<text text-anchor="start" x="307.5" y="-612.53" font-family="Segoe UI" font-size="10.00">PickUp(BALL_SPEC)</text>
</g>
<!-- ab_search_ball&#45;&gt;ab_pickup_ball -->
<g id="edge7" class="edge">
<title>ab_search_ball&#45;&gt;ab_pickup_ball</title>
<path fill="none" stroke="#2563eb" stroke-width="1.8" d="M455.53,-694.77C434.79,-680.93 405.75,-661.56 383.08,-646.43"/>
<polygon fill="#2563eb" stroke="#2563eb" stroke-width="1.8" points="384.89,-644.28 376.69,-642.17 381.79,-648.94 384.89,-644.28"/>
<text text-anchor="middle" x="426" y="-664.78" font-family="Segoe UI" font-size="11.00" fill="#2563eb">S</text>
</g>
<!-- ab_announce_missing_ball -->
<g id="node11" class="node">
<title>ab_announce_missing_ball</title>
<path fill="#fee2e2" stroke="#475569" d="M597.8,-583.83C597.8,-583.83 366.2,-583.83 366.2,-583.83 360.2,-583.83 354.2,-577.83 354.2,-571.83 354.2,-571.83 354.2,-559.43 354.2,-559.43 354.2,-553.43 360.2,-547.43 366.2,-547.43 366.2,-547.43 597.8,-547.43 597.8,-547.43 603.8,-547.43 609.8,-553.43 609.8,-559.43 609.8,-559.43 609.8,-571.83 609.8,-571.83 609.8,-577.83 603.8,-583.83 597.8,-583.83"/>
<text text-anchor="start" x="415.25" y="-566.23" font-family="Segoe UI" font-weight="bold" font-size="12.00">announce_missing_ball</text>
<text text-anchor="start" x="365" y="-556.13" font-family="Segoe UI" font-size="10.00">Say(&quot;I could not find the soccer ball after a full circle&quot;)</text>
</g>
<!-- ab_search_ball&#45;&gt;ab_announce_missing_ball -->
<g id="edge8" class="edge">
<title>ab_search_ball&#45;&gt;ab_announce_missing_ball</title>
<path fill="none" stroke="#dc2626" stroke-width="1.8" d="M482,-694.85C482,-670 482,-624.35 482,-594.76"/>
<polygon fill="#dc2626" stroke="#dc2626" stroke-width="1.8" points="484.8,-595.01 482,-587.01 479.2,-595.01 484.8,-595.01"/>
<text text-anchor="middle" x="484.62" y="-664.78" font-family="Segoe UI" font-size="11.00" fill="#dc2626">F</text>
</g>
<!-- ab_settle_after_pickup -->
<g id="node9" class="node">
<title>ab_settle_after_pickup</title>
<path fill="#fff7ed" stroke="#475569" d="M285.8,-527.43C285.8,-527.43 180.2,-527.43 180.2,-527.43 174.2,-527.43 168.2,-521.43 168.2,-515.43 168.2,-515.43 168.2,-503.03 168.2,-503.03 168.2,-497.03 174.2,-491.03 180.2,-491.03 180.2,-491.03 285.8,-491.03 285.8,-491.03 291.8,-491.03 297.8,-497.03 297.8,-503.03 297.8,-503.03 297.8,-515.43 297.8,-515.43 297.8,-521.43 291.8,-527.43 285.8,-527.43"/>
<text text-anchor="start" x="179" y="-509.83" font-family="Segoe UI" font-weight="bold" font-size="12.00">settle_after_pickup</text>
<text text-anchor="start" x="206.75" y="-499.73" font-family="Segoe UI" font-size="10.00">StateNode()</text>
</g>
<!-- ab_pickup_ball&#45;&gt;ab_settle_after_pickup -->
<g id="edge9" class="edge">
<title>ab_pickup_ball&#45;&gt;ab_settle_after_pickup</title>
<path fill="none" stroke="#059669" stroke-width="1.8" d="M329.78,-603.48C310.6,-585 280.25,-555.76 258.66,-534.95"/>
<polygon fill="#059669" stroke="#059669" stroke-width="1.8" points="260.8,-533.13 253.1,-529.6 256.92,-537.16 260.8,-533.13"/>
<text text-anchor="middle" x="311.38" y="-562.68" font-family="Segoe UI" font-size="11.00" fill="#059669">C</text>
</g>
<!-- ab_announce_pickup_failed -->
<g id="node12" class="node">
<title>ab_announce_pickup_failed</title>
<path fill="#fee2e2" stroke="#475569" d="M560.55,-358.23C560.55,-358.23 339.45,-358.23 339.45,-358.23 333.45,-358.23 327.45,-352.23 327.45,-346.23 327.45,-346.23 327.45,-333.83 327.45,-333.83 327.45,-327.83 333.45,-321.83 339.45,-321.83 339.45,-321.83 560.55,-321.83 560.55,-321.83 566.55,-321.83 572.55,-327.83 572.55,-333.83 572.55,-333.83 572.55,-346.23 572.55,-346.23 572.55,-352.23 566.55,-358.23 560.55,-358.23"/>
<text text-anchor="start" x="380.25" y="-340.63" font-family="Segoe UI" font-weight="bold" font-size="12.00">announce_pickup_failed</text>
<text text-anchor="start" x="338.25" y="-330.53" font-family="Segoe UI" font-size="10.00">Say(&quot;I could not drive in and touch the soccer ball&quot;)</text>
</g>
<!-- ab_pickup_ball&#45;&gt;ab_announce_pickup_failed -->
<g id="edge10" class="edge">
<title>ab_pickup_ball&#45;&gt;ab_announce_pickup_failed</title>
<path fill="none" stroke="#dc2626" stroke-width="1.8" d="M347.38,-603.49C347.28,-588.4 348.15,-566.15 353,-547.43 370.72,-479.06 410.84,-405.76 433.54,-367.59"/>
<polygon fill="#dc2626" stroke="#dc2626" stroke-width="1.8" points="435.78,-369.3 437.51,-361 430.98,-366.41 435.78,-369.3"/>
<text text-anchor="middle" x="373.62" y="-506.28" font-family="Segoe UI" font-size="11.00" fill="#dc2626">F</text>
</g>
<!-- ab_verify_ball -->
<g id="node10" class="node">
<title>ab_verify_ball</title>
<path fill="#eef2ff" stroke="#475569" d="M269.3,-414.63C269.3,-414.63 196.7,-414.63 196.7,-414.63 190.7,-414.63 184.7,-408.63 184.7,-402.63 184.7,-402.63 184.7,-390.23 184.7,-390.23 184.7,-384.23 190.7,-378.23 196.7,-378.23 196.7,-378.23 269.3,-378.23 269.3,-378.23 275.3,-378.23 281.3,-384.23 281.3,-390.23 281.3,-390.23 281.3,-402.63 281.3,-402.63 281.3,-408.63 275.3,-414.63 269.3,-414.63"/>
<text text-anchor="start" x="203" y="-397.03" font-family="Segoe UI" font-weight="bold" font-size="12.00">verify_ball</text>
<text text-anchor="start" x="195.5" y="-386.93" font-family="Segoe UI" font-size="10.00">RequireHeldBall()</text>
</g>
<!-- ab_settle_after_pickup&#45;&gt;ab_verify_ball -->
<g id="edge11" class="edge">
<title>ab_settle_after_pickup&#45;&gt;ab_verify_ball</title>
<path fill="none" stroke="#d97706" stroke-width="1.8" d="M233,-490.92C233,-473.46 233,-446.22 233,-425.63"/>
<polygon fill="#d97706" stroke="#d97706" stroke-width="1.8" points="235.8,-425.71 233,-417.71 230.2,-425.71 235.8,-425.71"/>
<text text-anchor="middle" x="246.88" y="-449.88" font-family="Segoe UI" font-size="11.00" fill="#d97706">T 0.4s</text>
</g>
<!-- ab_announce_verify_failed -->
<g id="node13" class="node">
<title>ab_announce_verify_failed</title>
<path fill="#fee2e2" stroke="#475569" d="M252.43,-294.29C252.43,-294.29 27.57,-294.29 27.57,-294.29 21.57,-294.29 15.58,-288.29 15.58,-282.29 15.58,-282.29 15.58,-269.89 15.58,-269.89 15.58,-263.89 21.58,-257.89 27.58,-257.89 27.58,-257.89 252.43,-257.89 252.43,-257.89 258.43,-257.89 264.43,-263.89 264.43,-269.89 264.43,-269.89 264.43,-282.29 264.43,-282.29 264.43,-288.29 258.43,-294.29 252.43,-294.29"/>
<text text-anchor="start" x="73.25" y="-276.69" font-family="Segoe UI" font-weight="bold" font-size="12.00">announce_verify_failed</text>
<text text-anchor="start" x="26.38" y="-266.59" font-family="Segoe UI" font-size="10.00">Say(&quot;I touched the soccer ball but did not secure it&quot;)</text>
</g>
<!-- ab_verify_ball&#45;&gt;ab_announce_verify_failed -->
<g id="edge13" class="edge">
<title>ab_verify_ball&#45;&gt;ab_announce_verify_failed</title>
<path fill="none" stroke="#dc2626" stroke-width="1.8" d="M219.28,-377.97C203.69,-358.13 178.09,-325.56 160.22,-302.82"/>
<polygon fill="#dc2626" stroke="#dc2626" stroke-width="1.8" points="162.61,-301.33 155.46,-296.77 158.2,-304.79 162.61,-301.33"/>
<text text-anchor="middle" x="205.62" y="-337.08" font-family="Segoe UI" font-size="11.00" fill="#dc2626">F</text>
</g>
<!-- ab_parentcompletes -->
<g id="node14" class="node">
<title>ab_parentcompletes</title>
<ellipse fill="#dcfce7" stroke="#475569" cx="408" cy="-276.09" rx="118.16" ry="25.74"/>
<text text-anchor="start" x="356.25" y="-276.69" font-family="Segoe UI" font-weight="bold" font-size="12.00">parentcompletes1</text>
<text text-anchor="start" x="335.25" y="-266.59" font-family="Segoe UI" font-size="10.00">ParentCompletes() return success</text>
</g>
<!-- ab_verify_ball&#45;&gt;ab_parentcompletes -->
<g id="edge12" class="edge">
<title>ab_verify_ball&#45;&gt;ab_parentcompletes</title>
<path fill="none" stroke="#2563eb" stroke-width="1.8" d="M247.88,-377.89C262.26,-361.74 285.3,-337.94 309,-321.83 318.89,-315.11 329.96,-308.97 341.01,-303.54"/>
<polygon fill="#2563eb" stroke="#2563eb" stroke-width="1.8" points="342.2,-306.08 348.23,-300.12 339.8,-301.02 342.2,-306.08"/>
<text text-anchor="middle" x="312" y="-337.08" font-family="Segoe UI" font-size="11.00" fill="#2563eb">S</text>
</g>
<!-- ab_parentfails -->
<g id="node15" class="node">
<title>ab_parentfails</title>
<ellipse fill="#fecaca" stroke="#475569" cx="515" cy="-148.22" rx="94.29" ry="25.74"/>
<text text-anchor="start" x="480.88" y="-148.82" font-family="Segoe UI" font-weight="bold" font-size="12.00">parentfails1</text>
<text text-anchor="start" x="459.12" y="-138.72" font-family="Segoe UI" font-size="10.00">ParentFails() return failure</text>
</g>
<!-- ab_announce_missing_ball&#45;&gt;ab_parentfails -->
<g id="edge14" class="edge">
<title>ab_announce_missing_ball&#45;&gt;ab_parentfails</title>
<path fill="none" stroke="#059669" stroke-width="1.8" d="M494.42,-546.95C517.73,-512.57 567.27,-433.46 585,-358.23 602.12,-285.57 583.51,-260.66 550,-193.95 548.01,-189.99 545.63,-186.04 543.08,-182.21"/>
<polygon fill="#059669" stroke="#059669" stroke-width="1.8" points="545.4,-180.65 538.45,-175.79 540.86,-183.92 545.4,-180.65"/>
<text text-anchor="middle" x="582.38" y="-393.48" font-family="Segoe UI" font-size="11.00" fill="#059669">C</text>
</g>
<!-- ab_announce_pickup_failed&#45;&gt;ab_parentfails -->
<g id="edge15" class="edge">
<title>ab_announce_pickup_failed&#45;&gt;ab_parentfails</title>
<path fill="none" stroke="#059669" stroke-width="1.8" d="M517.27,-321.46C525.84,-316.47 533.52,-310.06 539,-301.83 562.51,-266.53 547.81,-216.6 533.15,-183.59"/>
<polygon fill="#059669" stroke="#059669" stroke-width="1.8" points="535.71,-182.46 529.79,-176.4 530.63,-184.83 535.71,-182.46"/>
<text text-anchor="middle" x="554.38" y="-273.14" font-family="Segoe UI" font-size="11.00" fill="#059669">C</text>
</g>
<!-- ab_announce_verify_failed&#45;&gt;ab_parentfails -->
<g id="edge16" class="edge">
<title>ab_announce_verify_failed&#45;&gt;ab_parentfails</title>
<path fill="none" stroke="#059669" stroke-width="1.8" d="M192.54,-257.46C258.96,-235.16 373.44,-196.73 446.61,-172.17"/>
<polygon fill="#059669" stroke="#059669" stroke-width="1.8" points="447.38,-174.87 454.07,-169.67 445.6,-169.56 447.38,-174.87"/>
<text text-anchor="middle" x="376.38" y="-209.2" font-family="Segoe UI" font-size="11.00" fill="#059669">C</text>
</g>
<!-- sh_search_tag -->
<g id="node17" class="node">
<title>sh_search_tag</title>
<path fill="#eef2ff" stroke="#475569" d="M947.55,-640.23C947.55,-640.23 858.45,-640.23 858.45,-640.23 852.45,-640.23 846.45,-634.23 846.45,-628.23 846.45,-628.23 846.45,-615.83 846.45,-615.83 846.45,-609.83 852.45,-603.83 858.45,-603.83 858.45,-603.83 947.55,-603.83 947.55,-603.83 953.55,-603.83 959.55,-609.83 959.55,-615.83 959.55,-615.83 959.55,-628.23 959.55,-628.23 959.55,-634.23 953.55,-640.23 947.55,-640.23"/>
<text text-anchor="start" x="872.62" y="-622.63" font-family="Segoe UI" font-weight="bold" font-size="12.00">search_tag</text>
<text text-anchor="start" x="857.25" y="-612.53" font-family="Segoe UI" font-size="10.00">SearchForAprilTag0()</text>
</g>
<!-- sh_check_ball&#45;&gt;sh_search_tag -->
<g id="edge17" class="edge">
<title>sh_check_ball&#45;&gt;sh_search_tag</title>
<path fill="none" stroke="#2563eb" stroke-width="1.8" d="M903,-694.77C903,-682.28 903,-665.28 903,-650.96"/>
<polygon fill="#2563eb" stroke="#2563eb" stroke-width="1.8" points="905.8,-651.38 903,-643.38 900.2,-651.38 905.8,-651.38"/>
<text text-anchor="middle" x="906" y="-664.78" font-family="Segoe UI" font-size="11.00" fill="#2563eb">S</text>
</g>
<!-- sh_announce_no_ball -->
<g id="node21" class="node">
<title>sh_announce_no_ball</title>
<path fill="#fee2e2" stroke="#475569" d="M1145.42,-471.03C1145.42,-471.03 980.58,-471.03 980.58,-471.03 974.58,-471.03 968.58,-465.03 968.58,-459.03 968.58,-459.03 968.58,-446.63 968.58,-446.63 968.58,-440.63 974.58,-434.63 980.58,-434.63 980.58,-434.63 1145.42,-434.63 1145.42,-434.63 1151.42,-434.63 1157.42,-440.63 1157.42,-446.63 1157.42,-446.63 1157.42,-459.03 1157.42,-459.03 1157.42,-465.03 1151.42,-471.03 1145.42,-471.03"/>
<text text-anchor="start" x="1010.88" y="-453.43" font-family="Segoe UI" font-weight="bold" font-size="12.00">announce_no_ball</text>
<text text-anchor="start" x="979.38" y="-443.33" font-family="Segoe UI" font-size="10.00">Say(&quot;I am not holding the soccer ball&quot;)</text>
</g>
<!-- sh_check_ball&#45;&gt;sh_announce_no_ball -->
<g id="edge18" class="edge">
<title>sh_check_ball&#45;&gt;sh_announce_no_ball</title>
<path fill="none" stroke="#dc2626" stroke-width="1.8" d="M922.87,-694.83C937.68,-681 957.73,-660.72 972,-640.23 1008.41,-587.97 1037.95,-518.95 1052.73,-481.27"/>
<polygon fill="#dc2626" stroke="#dc2626" stroke-width="1.8" points="1055.24,-482.53 1055.52,-474.06 1050.02,-480.51 1055.24,-482.53"/>
<text text-anchor="middle" x="996.62" y="-619.08" font-family="Segoe UI" font-size="11.00" fill="#dc2626">F</text>
</g>
<!-- sh_aim_tag -->
<g id="node18" class="node">
<title>sh_aim_tag</title>
<path fill="#eef2ff" stroke="#475569" d="M919.67,-527.43C919.67,-527.43 768.33,-527.43 768.33,-527.43 762.33,-527.43 756.33,-521.43 756.33,-515.43 756.33,-515.43 756.33,-503.03 756.33,-503.03 756.33,-497.03 762.33,-491.03 768.33,-491.03 768.33,-491.03 919.67,-491.03 919.67,-491.03 925.67,-491.03 931.67,-497.03 931.67,-503.03 931.67,-503.03 931.67,-515.43 931.67,-515.43 931.67,-521.43 925.67,-527.43 919.67,-527.43"/>
<text text-anchor="start" x="821.12" y="-509.83" font-family="Segoe UI" font-weight="bold" font-size="12.00">aim_tag</text>
<text text-anchor="start" x="767.12" y="-499.73" font-family="Segoe UI" font-size="10.00">TurnTowardAprilTag0IfNeeded(5.0)</text>
</g>
<!-- sh_search_tag&#45;&gt;sh_aim_tag -->
<g id="edge19" class="edge">
<title>sh_search_tag&#45;&gt;sh_aim_tag</title>
<path fill="none" stroke="#2563eb" stroke-width="1.8" d="M893.78,-603.72C884.27,-585.86 869.3,-557.75 858.26,-537.02"/>
<polygon fill="#2563eb" stroke="#2563eb" stroke-width="1.8" points="860.86,-535.94 854.63,-530.19 855.92,-538.57 860.86,-535.94"/>
<text text-anchor="middle" x="885" y="-562.68" font-family="Segoe UI" font-size="11.00" fill="#2563eb">S</text>
</g>
<!-- sh_announce_missing_tag -->
<g id="node22" class="node">
<title>sh_announce_missing_tag</title>
<path fill="#fee2e2" stroke="#475569" d="M1138.42,-230.35C1138.42,-230.35 925.58,-230.35 925.58,-230.35 919.58,-230.35 913.58,-224.35 913.58,-218.35 913.58,-218.35 913.58,-205.95 913.58,-205.95 913.58,-199.95 919.58,-193.95 925.58,-193.95 925.58,-193.95 1138.42,-193.95 1138.42,-193.95 1144.42,-193.95 1150.42,-199.95 1150.42,-205.95 1150.42,-205.95 1150.42,-218.35 1150.42,-218.35 1150.42,-224.35 1144.42,-230.35 1138.42,-230.35"/>
<text text-anchor="start" x="966.75" y="-212.75" font-family="Segoe UI" font-weight="bold" font-size="12.00">announce_missing_tag</text>
<text text-anchor="start" x="924.38" y="-202.65" font-family="Segoe UI" font-size="10.00">Say(&quot;I could not find AprilTag 0 after a full circle&quot;)</text>
</g>
<!-- sh_search_tag&#45;&gt;sh_announce_missing_tag -->
<g id="edge20" class="edge">
<title>sh_search_tag&#45;&gt;sh_announce_missing_tag</title>
<path fill="none" stroke="#dc2626" stroke-width="1.8" d="M918.03,-603.55C934.31,-582.75 958,-546.31 958,-510.23 958,-510.23 958,-510.23 958,-339.03 958,-300.03 984.73,-262.44 1006.06,-238.65"/>
<polygon fill="#dc2626" stroke="#dc2626" stroke-width="1.8" points="1008.08,-240.6 1011.47,-232.83 1003.97,-236.78 1008.08,-240.6"/>
<text text-anchor="middle" x="960.62" y="-449.88" font-family="Segoe UI" font-size="11.00" fill="#dc2626">F</text>
</g>
<!-- sh_settle_before_kick -->
<g id="node19" class="node">
<title>sh_settle_before_kick</title>
<path fill="#fff7ed" stroke="#475569" d="M811.17,-414.63C811.17,-414.63 710.83,-414.63 710.83,-414.63 704.83,-414.63 698.83,-408.63 698.83,-402.63 698.83,-402.63 698.83,-390.23 698.83,-390.23 698.83,-384.23 704.83,-378.23 710.83,-378.23 710.83,-378.23 811.17,-378.23 811.17,-378.23 817.17,-378.23 823.17,-384.23 823.17,-390.23 823.17,-390.23 823.17,-402.63 823.17,-402.63 823.17,-408.63 817.17,-414.63 811.17,-414.63"/>
<text text-anchor="start" x="709.62" y="-397.03" font-family="Segoe UI" font-weight="bold" font-size="12.00">settle_before_kick</text>
<text text-anchor="start" x="734.75" y="-386.93" font-family="Segoe UI" font-size="10.00">StateNode()</text>
</g>
<!-- sh_aim_tag&#45;&gt;sh_settle_before_kick -->
<g id="edge21" class="edge">
<title>sh_aim_tag&#45;&gt;sh_settle_before_kick</title>
<path fill="none" stroke="#059669" stroke-width="1.8" d="M831.03,-490.92C817.47,-472.81 796.02,-444.18 780.43,-423.37"/>
<polygon fill="#059669" stroke="#059669" stroke-width="1.8" points="782.82,-421.89 775.78,-417.17 778.34,-425.25 782.82,-421.89"/>
<text text-anchor="middle" x="817.38" y="-449.88" font-family="Segoe UI" font-size="11.00" fill="#059669">C</text>
</g>
<!-- sh_announce_aim_failed -->
<g id="node23" class="node">
<title>sh_announce_aim_failed</title>
<path fill="#fee2e2" stroke="#475569" d="M940.3,-358.23C940.3,-358.23 789.7,-358.23 789.7,-358.23 783.7,-358.23 777.7,-352.23 777.7,-346.23 777.7,-346.23 777.7,-333.83 777.7,-333.83 777.7,-327.83 783.7,-321.83 789.7,-321.83 789.7,-321.83 940.3,-321.83 940.3,-321.83 946.3,-321.83 952.3,-327.83 952.3,-333.83 952.3,-333.83 952.3,-346.23 952.3,-346.23 952.3,-352.23 946.3,-358.23 940.3,-358.23"/>
<text text-anchor="start" x="803.88" y="-340.63" font-family="Segoe UI" font-weight="bold" font-size="12.00">announce_aim_failed</text>
<text text-anchor="start" x="788.5" y="-330.53" font-family="Segoe UI" font-size="10.00">Say(&quot;I could not aim at AprilTag 0&quot;)</text>
</g>
<!-- sh_aim_tag&#45;&gt;sh_announce_aim_failed -->
<g id="edge22" class="edge">
<title>sh_aim_tag&#45;&gt;sh_announce_aim_failed</title>
<path fill="none" stroke="#dc2626" stroke-width="1.8" d="M846.21,-490.65C849.85,-461.68 857.14,-403.65 861.49,-368.99"/>
<polygon fill="#dc2626" stroke="#dc2626" stroke-width="1.8" points="864.23,-369.61 862.45,-361.33 858.68,-368.92 864.23,-369.61"/>
<text text-anchor="middle" x="855.62" y="-449.88" font-family="Segoe UI" font-size="11.00" fill="#dc2626">F</text>
</g>
<!-- sh_kick_ball -->
<g id="node20" class="node">
<title>sh_kick_ball</title>
<path fill="#eef2ff" stroke="#475569" d="M796.67,-294.29C796.67,-294.29 693.33,-294.29 693.33,-294.29 687.33,-294.29 681.33,-288.29 681.33,-282.29 681.33,-282.29 681.33,-269.89 681.33,-269.89 681.33,-263.89 687.33,-257.89 693.33,-257.89 693.33,-257.89 796.67,-257.89 796.67,-257.89 802.67,-257.89 808.67,-263.89 808.67,-269.89 808.67,-269.89 808.67,-282.29 808.67,-282.29 808.67,-288.29 802.67,-294.29 796.67,-294.29"/>
<text text-anchor="start" x="719.88" y="-276.69" font-family="Segoe UI" font-weight="bold" font-size="12.00">kick_ball</text>
<text text-anchor="start" x="692.12" y="-266.59" font-family="Segoe UI" font-size="10.00">Kick(vex.KickType.HARD)</text>
</g>
<!-- sh_settle_before_kick&#45;&gt;sh_kick_ball -->
<g id="edge23" class="edge">
<title>sh_settle_before_kick&#45;&gt;sh_kick_ball</title>
<path fill="none" stroke="#d97706" stroke-width="1.8" d="M746.93,-377.9C743.01,-372 739.27,-365.15 737.25,-358.23 732.19,-340.9 734.1,-320.7 737.28,-304.79"/>
<polygon fill="#d97706" stroke="#d97706" stroke-width="1.8" points="739.97,-305.62 739.02,-297.2 734.51,-304.37 739.97,-305.62"/>
<text text-anchor="middle" x="750.88" y="-337.08" font-family="Segoe UI" font-size="11.00" fill="#d97706">T 0.2s</text>
</g>
<!-- sh_announce_kick_failed -->
<g id="node24" class="node">
<title>sh_announce_kick_failed</title>
<path fill="#fee2e2" stroke="#475569" d="M773.3,-166.42C773.3,-166.42 646.7,-166.42 646.7,-166.42 640.7,-166.42 634.7,-160.42 634.7,-154.42 634.7,-154.42 634.7,-142.02 634.7,-142.02 634.7,-136.02 640.7,-130.02 646.7,-130.02 646.7,-130.02 773.3,-130.02 773.3,-130.02 779.3,-130.02 785.3,-136.02 785.3,-142.02 785.3,-142.02 785.3,-154.42 785.3,-154.42 785.3,-160.42 779.3,-166.42 773.3,-166.42"/>
<text text-anchor="start" x="648.12" y="-148.82" font-family="Segoe UI" font-weight="bold" font-size="12.00">announce_kick_failed</text>
<text text-anchor="start" x="645.5" y="-138.72" font-family="Segoe UI" font-size="10.00">Say(&quot;I could not kick the ball&quot;)</text>
</g>
<!-- sh_kick_ball&#45;&gt;sh_announce_kick_failed -->
<g id="edge25" class="edge">
<title>sh_kick_ball&#45;&gt;sh_announce_kick_failed</title>
<path fill="none" stroke="#dc2626" stroke-width="1.8" d="M740.13,-257.59C734.31,-236.64 724.49,-201.31 717.64,-176.71"/>
<polygon fill="#dc2626" stroke="#dc2626" stroke-width="1.8" points="720.4,-176.15 715.56,-169.19 715,-177.65 720.4,-176.15"/>
<text text-anchor="middle" x="733.62" y="-209.2" font-family="Segoe UI" font-size="11.00" fill="#dc2626">F</text>
</g>
<!-- sh_parentcompletes -->
<g id="node25" class="node">
<title>sh_parentcompletes</title>
<ellipse fill="#dcfce7" stroke="#475569" cx="928" cy="-148.22" rx="118.16" ry="25.74"/>
<text text-anchor="start" x="876.25" y="-148.82" font-family="Segoe UI" font-weight="bold" font-size="12.00">parentcompletes1</text>
<text text-anchor="start" x="855.25" y="-138.72" font-family="Segoe UI" font-size="10.00">ParentCompletes() return success</text>
</g>
<!-- sh_kick_ball&#45;&gt;sh_parentcompletes -->
<g id="edge24" class="edge">
<title>sh_kick_ball&#45;&gt;sh_parentcompletes</title>
<path fill="none" stroke="#059669" stroke-width="1.8" d="M770.45,-257.59C799.87,-237.35 848.81,-203.69 884.35,-179.24"/>
<polygon fill="#059669" stroke="#059669" stroke-width="1.8" points="885.83,-181.62 890.83,-174.78 882.65,-177.01 885.83,-181.62"/>
<text text-anchor="middle" x="861.38" y="-209.2" font-family="Segoe UI" font-size="11.00" fill="#059669">C</text>
</g>
<!-- sh_parentfails -->
<g id="node26" class="node">
<title>sh_parentfails</title>
<ellipse fill="#fecaca" stroke="#475569" cx="1063" cy="-41.74" rx="94.29" ry="25.74"/>
<text text-anchor="start" x="1028.88" y="-42.34" font-family="Segoe UI" font-weight="bold" font-size="12.00">parentfails1</text>
<text text-anchor="start" x="1007.12" y="-32.24" font-family="Segoe UI" font-size="10.00">ParentFails() return failure</text>
</g>
<!-- sh_announce_no_ball&#45;&gt;sh_parentfails -->
<g id="edge26" class="edge">
<title>sh_announce_no_ball&#45;&gt;sh_parentfails</title>
<path fill="none" stroke="#059669" stroke-width="1.8" d="M1076.64,-434.26C1107.05,-392.9 1175.83,-285.98 1151,-193.95 1139.06,-149.7 1110.62,-105.08 1089.29,-75.9"/>
<polygon fill="#059669" stroke="#059669" stroke-width="1.8" points="1091.57,-74.28 1084.54,-69.54 1087.08,-77.63 1091.57,-74.28"/>
<text text-anchor="middle" x="1158.38" y="-273.14" font-family="Segoe UI" font-size="11.00" fill="#059669">C</text>
</g>
<!-- sh_announce_missing_tag&#45;&gt;sh_parentfails -->
<g id="edge27" class="edge">
<title>sh_announce_missing_tag&#45;&gt;sh_parentfails</title>
<path fill="none" stroke="#059669" stroke-width="1.8" d="M1062.47,-193.61C1069.13,-188.21 1075.28,-181.64 1079,-173.95 1093.62,-143.73 1086.31,-105.19 1077.35,-77.72"/>
<polygon fill="#059669" stroke="#059669" stroke-width="1.8" points="1080.06,-76.97 1074.78,-70.34 1074.77,-78.82 1080.06,-76.97"/>
<text text-anchor="middle" x="1090.38" y="-145.27" font-family="Segoe UI" font-size="11.00" fill="#059669">C</text>
</g>
<!-- sh_announce_aim_failed&#45;&gt;sh_parentfails -->
<g id="edge28" class="edge">
<title>sh_announce_aim_failed&#45;&gt;sh_parentfails</title>
<path fill="none" stroke="#059669" stroke-width="1.8" d="M864.17,-321.57C863.74,-290.65 867.74,-226.51 905.25,-193.95 957.29,-148.79 1012.74,-225.03 1059,-173.95 1071.25,-160.43 1069.74,-112.46 1066.89,-78.45"/>
<polygon fill="#059669" stroke="#059669" stroke-width="1.8" points="1069.69,-78.38 1066.18,-70.67 1064.12,-78.89 1069.69,-78.38"/>
<text text-anchor="middle" x="908.38" y="-209.2" font-family="Segoe UI" font-size="11.00" fill="#059669">C</text>
</g>
<!-- sh_announce_kick_failed&#45;&gt;sh_parentfails -->
<g id="edge29" class="edge">
<title>sh_announce_kick_failed&#45;&gt;sh_parentfails</title>
<path fill="none" stroke="#059669" stroke-width="1.8" d="M754.42,-129.56C767.99,-124.42 783.02,-118.98 797,-114.48 858.89,-94.54 930.05,-75.55 983.19,-62.12"/>
<polygon fill="#059669" stroke="#059669" stroke-width="1.8" points="983.85,-64.84 990.93,-60.17 982.49,-59.41 983.85,-64.84"/>
<text text-anchor="middle" x="887.38" y="-92.03" font-family="Segoe UI" font-size="11.00" fill="#059669">C</text>
</g>
</g>
</svg>
